<?xml version="1.0" standalone="no"?>
<!DOCTYPE svg PUBLIC "-//W3C//DTD SVG 20010904//EN"
 "http://www.w3.org/TR/2001/REC-SVG-20010904/DTD/svg10.dtd">
<svg version="1.0" xmlns="http://www.w3.org/2000/svg"
 width="64.000000pt" height="64.000000pt" viewBox="0 0 64.000000 64.000000"
 preserveAspectRatio="xMidYMid meet">

<g transform="translate(0.000000,64.000000) scale(0.100000,-0.100000)"
fill="#000000" stroke="none">
<path d="M136 594 c-23 -23 -24 -397 -1 -451 30 -71 79 -105 152 -105 34 0 60
10 113 41 99 59 128 87 140 133 10 35 8 46 -12 86 -19 40 -34 53 -93 84 -73
39 -110 47 -117 26 -3 -7 2 -35 12 -63 12 -37 26 -56 53 -74 l37 -24 -63 -38
c-34 -21 -65 -38 -69 -39 -4 0 -8 79 -10 176 l-3 176 -32 27 c-17 14 -45 34
-61 44 -28 16 -32 16 -46 1z m69 -31 c22 -14 43 -31 47 -37 4 -6 8 -92 8 -190
0 -159 -2 -180 -17 -192 -25 -18 -63 -17 -85 3 -16 15 -18 35 -18 230 0 165 3
213 13 213 7 0 30 -12 52 -27z m207 -182 c82 -36 118 -78 118 -134 0 -23 -4
-49 -10 -57 -7 -11 -11 -9 -19 13 -8 20 -28 36 -74 58 -40 18 -68 39 -75 53
-17 38 -26 96 -14 96 6 0 39 -13 74 -29z m56 -157 c26 -18 29 -56 6 -79 -41
-41 -131 -88 -175 -93 -51 -5 -113 18 -129 48 -8 14 -5 16 14 13 25 -5 58 11
171 82 80 50 83 50 113 29z"/>
<path d="M385 479 c-4 -6 -5 -12 -2 -15 2 -3 7 2 10 11 7 17 1 20 -8 4z"/>
<path d="M426 453 c-6 -14 -5 -15 5 -6 7 7 10 15 7 18 -3 3 -9 -2 -12 -12z"/>
</g>
</svg>
