<svg class="icon" style="width: 1em;height: 1em;vertical-align: middle;fill: currentColor;overflow: hidden;" viewBox="0 0 1024 1024" version="1.1" xmlns="http://www.w3.org/2000/svg" p-id="2020" data-spm-anchor-id="a313x.search_index.i1.i0.11c13a815IRsNx"><path d="M128.006097 896.002032a21.332661 21.332661 0 0 1-21.332661-21.332661V21.348921a21.289662 21.289662 0 0 1 29.268535-19.796686l213.329613 85.331645a21.275662 21.275662 0 0 1 13.397787 19.797686v554.657193a21.485659 21.485659 0 0 1-6.229901 15.10376L143.109858 889.773131A21.503659 21.503659 0 0 1 128.006097 896.002032z m21.332662-843.165611v770.334768L320.003049 652.506899V121.102337L149.338759 52.836421zM341.33571 1024a21.460659 21.460659 0 0 1-10.964826-3.029952l-213.329612-127.997967a21.375661 21.375661 0 0 1 0.59699-36.948414l767.987805-426.659225A21.332661 21.332661 0 0 1 917.326564 448.009146v213.329613a21.332661 21.332661 0 0 1-10.153839 18.175711l-554.658193 341.32858a21.41866 21.41866 0 0 1-11.178822 3.15695zM170.67242 875.39436l170.535292 102.313375 533.453529-328.272787V484.27557l-703.988821 391.11879zM691.367152 583.047002a21.546658 21.546658 0 0 1-7.849876-1.492976l-179.367151-71.038872a21.289662 21.289662 0 0 1-11.946811-11.903811l-85.332645-213.330613a21.332661 21.332661 0 0 1 27.09357-27.988556l469.325548 170.664291a21.332661 21.332661 0 0 1 3.071951 38.697385l-204.626751 113.705195a21.247663 21.247663 0 0 1-10.366835 2.687957zM528.38474 474.20573l161.447436 63.913985 154.92054-86.057633-380.579957-138.407802 64.211981 160.55145z" p-id="2021"></path></svg>