<svg class="icon" style="width: 1em;height: 1em;vertical-align: middle;fill: currentColor;overflow: hidden;" viewBox="0 0 1024 1024" version="1.1" xmlns="http://www.w3.org/2000/svg" p-id="551"><path d="M974.0288 606.976a48.5376 48.5376 0 0 0-2.8672-3.9936l-115.3024-199.68 51.7632-89.8048a30.3104 30.3104 0 0 0 5.4272-6.8096 26.368 26.368 0 0 0 0-26.0096l-66.048-113.0496a25.6 25.6 0 0 0-22.3232-12.8512h-232.5504l-52.9408-90.7264A25.6 25.6 0 0 0 516.608 51.2H395.8784a26.1632 26.1632 0 0 0-22.5792 12.8512 31.7952 31.7952 0 0 0-1.9968 4.5568l-115.5584 199.68h-107.52a21.4016 21.4016 0 0 0-5.9904-0.5632 25.6 25.6 0 0 0-22.5792 13.1584l-65.024 113.5616a26.368 26.368 0 0 0 0 26.0096l116.4288 201.3696-52.0704 91.0336a26.368 26.368 0 0 0 0 26.0096L179.2 843.5712a25.6 25.6 0 0 0 22.5792 12.8512 15.8208 15.8208 0 0 0 5.12-0.5632h230.1952l56.32 97.28a26.112 26.112 0 0 0 21.1456 12.8512h1.7408l131.2768-0.5632a25.6 25.6 0 0 0 22.3232-12.8512l116.1216-201.6768H890.88a26.88 26.88 0 0 0 22.3232-13.4656l60.3648-104.704a26.368 26.368 0 0 0 0-26.0096z m-146.176 12.5952l-63.488-109.824-248.32 430.7968-63.7952-110.1312H203.1104l61.44-106.3936h126.464L142.7456 294.3488h128l124.8768-216.2688 61.44 106.3936-63.4368 109.8752h495.1552l-62.976 109.0048 124.7232 216.2688h-122.88zM515.4816 681.6768l148.1728-257.1776H367.0016z" p-id="552" data-spm-anchor-id="a313x.search_index.i1.i0.c2ee3a81crlldI"></path></svg>